<svg width="121" height="10" viewBox="0 0 121 10" fill="none" xmlns="http://www.w3.org/2000/svg">
<path d="M0.71875 9C0.960938 8.10547 1.22852 7.19727 1.52148 6.27539C1.81445 5.35352 2.17773 4.25195 2.61133 2.9707C3.04883 1.68555 3.34766 0.796875 3.50781 0.304688C3.55469 0.226562 3.58594 0.179688 3.60156 0.164062H4.58594C4.81641 0.164062 5.15625 0.160156 5.60547 0.152344C6.05469 0.144531 6.39453 0.140625 6.625 0.140625H7.60938C7.66797 0.140625 7.7168 0.142578 7.75586 0.146484C7.79492 0.146484 7.8418 0.150391 7.89648 0.158203C7.95117 0.166016 7.99414 0.177734 8.02539 0.193359C8.06055 0.208984 8.08984 0.232422 8.11328 0.263672C8.13672 0.294922 8.14844 0.332031 8.14844 0.375L10.8496 8.93555C10.8496 9.01367 10.8203 9.06641 10.7617 9.09375C10.707 9.125 10.6016 9.14062 10.4453 9.14062H9.90625C9.75 9.14062 9.51758 9.14258 9.20898 9.14648C8.90039 9.15039 8.66797 9.15234 8.51172 9.15234C8.46484 9.15234 8.36914 9.1543 8.22461 9.1582C8.08398 9.16602 7.96484 9.16797 7.86719 9.16406C7.76953 9.16406 7.66016 9.1582 7.53906 9.14648C7.42188 9.13867 7.32617 9.11719 7.25195 9.08203C7.18164 9.05078 7.13672 9.00781 7.11719 8.95312V8.56641C7.07812 8.37109 7.00977 8.19141 6.91211 8.02734C6.81445 7.86328 6.71094 7.78125 6.60156 7.78125H4.58594L4.28125 9.02344C4.23828 9.11719 4.01953 9.16406 3.625 9.16406H3.15625C2.98828 9.16406 2.73828 9.16992 2.40625 9.18164C2.07422 9.19336 1.82422 9.19922 1.65625 9.19922H1.49219C1.42969 9.19922 1.33008 9.20117 1.19336 9.20508C1.06055 9.20898 0.957031 9.21094 0.882812 9.21094C0.851562 9.17969 0.796875 9.10938 0.71875 9ZM4.78516 5.44336L4.94922 5.71875H5.33594C5.64844 5.71875 5.93359 5.70117 6.19141 5.66602C6.45312 5.62695 6.58398 5.56641 6.58398 5.48438L5.82812 2.10938C5.75781 2.10938 5.66211 2.24219 5.54102 2.50781C5.42383 2.77344 5.32812 3.07422 5.25391 3.41016L4.78516 5.44336ZM11.1367 0.9375H12.2266C12.5625 0.9375 13.0996 0.929688 13.8379 0.914062C14.5762 0.898438 15.1289 0.890625 15.4961 0.890625C15.8125 0.890625 16.1074 0.908203 16.3809 0.943359C16.6582 0.978516 16.9297 1.04297 17.1953 1.13672C17.4648 1.23047 17.6934 1.34961 17.8809 1.49414C18.0723 1.63867 18.2266 1.83008 18.3438 2.06836C18.4609 2.30273 18.5195 2.57422 18.5195 2.88281C18.5195 3.30859 18.4199 3.67188 18.2207 3.97266C18.0215 4.27344 17.7148 4.52734 17.3008 4.73438C17.4648 4.80469 17.6074 4.89648 17.7285 5.00977C17.8496 5.12305 17.9414 5.2207 18.0039 5.30273C18.0703 5.38477 18.1328 5.52344 18.1914 5.71875C18.2539 5.91016 18.291 6.03711 18.3027 6.09961C18.3145 6.1582 18.3398 6.30664 18.3789 6.54492C18.3906 6.59961 18.3984 6.64062 18.4023 6.66797C18.418 6.82422 18.4844 7.11133 18.6016 7.5293C18.7188 7.94336 18.7773 8.26172 18.7773 8.48438C18.7773 8.625 18.7344 8.69531 18.6484 8.69531C18.4141 8.69531 18.0586 8.69727 17.582 8.70117C17.1094 8.70508 16.7578 8.70703 16.5273 8.70703C16.4336 8.69922 16.293 8.69531 16.1055 8.69531H15.707C15.6289 8.67188 15.5527 8.55078 15.4785 8.33203C15.4043 8.11328 15.3516 7.86719 15.3203 7.59375L15.1914 6.55078C15.168 6.46484 15.1484 6.4043 15.1328 6.36914C15.1211 6.33008 15.0977 6.28516 15.0625 6.23438C15.0273 6.17969 14.9785 6.14258 14.916 6.12305C14.8574 6.10352 14.7812 6.09375 14.6875 6.09375H14.418V8.4375C14.418 8.44922 14.418 8.46875 14.418 8.49609C14.418 8.51953 14.418 8.53711 14.418 8.54883C14.418 8.55664 14.418 8.57031 14.418 8.58984C14.418 8.60938 14.416 8.625 14.4121 8.63672C14.4082 8.64453 14.4043 8.65625 14.4004 8.67188C14.3965 8.6875 14.3906 8.69922 14.3828 8.70703C14.3789 8.71094 14.3711 8.71875 14.3594 8.73047C14.3516 8.73828 14.3398 8.74414 14.3242 8.74805C14.3125 8.75195 14.2969 8.75586 14.2773 8.75977C14.2617 8.76367 14.2422 8.76562 14.2188 8.76562H11.1367V0.9375ZM14.4531 4.03125C14.4609 4.03906 14.4727 4.05664 14.4883 4.08398C14.5039 4.10742 14.5195 4.12695 14.5352 4.14258C14.5508 4.1582 14.5664 4.16797 14.582 4.17188C14.6992 4.17188 14.8164 4.16016 14.9336 4.13672C15.0508 4.10938 15.1699 4.06641 15.291 4.00781C15.416 3.94922 15.5156 3.85938 15.5898 3.73828C15.668 3.61719 15.707 3.47266 15.707 3.30469C15.707 2.89844 15.3164 2.69531 14.5352 2.69531C14.457 2.71484 14.418 2.74609 14.418 2.78906V3.01172C14.418 3.125 14.4238 3.29492 14.4355 3.52148C14.4473 3.74805 14.4531 3.91797 14.4531 4.03125ZM22.0469 7.54688C22.0195 7.63672 21.9922 7.75586 21.9648 7.9043C21.9414 8.04883 21.918 8.16406 21.8945 8.25C21.875 8.33203 21.8398 8.41992 21.7891 8.51367C21.7383 8.60352 21.6602 8.66992 21.5547 8.71289C21.4531 8.75586 21.3203 8.77734 21.1562 8.77734H18.625V8.57812C18.832 7.95703 19.1328 7.00391 19.5273 5.71875C19.9258 4.43359 20.2344 3.46094 20.4531 2.80078V2.8125C20.5859 2.43359 20.7812 1.83984 21.0391 1.03125C21.043 1.02344 21.0488 1.01367 21.0566 1.00195C21.0918 0.943359 21.125 0.898438 21.1562 0.867188L24.3203 0.890625C24.8594 0.890625 25.1562 0.9375 25.2109 1.03125V1.18359C25.2188 1.21875 25.2617 1.30859 25.3398 1.45312C25.7188 2.61328 25.9961 3.45703 26.1719 3.98438V4.05469C26.1875 4.16797 26.2227 4.29688 26.2773 4.44141C26.332 4.58594 26.3965 4.74219 26.4707 4.91016C26.5488 5.07422 26.6035 5.20312 26.6348 5.29688L26.8691 6.14062C27.0059 6.59375 27.207 7.19922 27.4727 7.95703V7.94531V8.0625C27.4844 8.11719 27.5137 8.19141 27.5605 8.28516C27.6074 8.37891 27.6367 8.44531 27.6484 8.48438C27.6484 8.59375 27.625 8.66406 27.5781 8.69531C27.5352 8.72656 27.4492 8.74219 27.3203 8.74219H24.6016C24.5352 8.73438 24.4922 8.72852 24.4727 8.72461C24.4531 8.7207 24.4219 8.71289 24.3789 8.70117C24.3398 8.68945 24.3105 8.67383 24.291 8.6543C24.2754 8.63477 24.2656 8.60938 24.2617 8.57812L24.0391 7.6875C24.0234 7.61328 24.0078 7.57227 23.9922 7.56445C23.9766 7.55273 23.9297 7.54688 23.8516 7.54688H22.0469ZM22.3281 5.46094V5.48438V5.46094ZM23.6172 4.75781C23.5938 4.64844 23.5586 4.47266 23.5117 4.23047C23.4688 3.98438 23.4258 3.77148 23.3828 3.5918C23.3398 3.4082 23.293 3.23828 23.2422 3.08203V2.80078C23.2109 2.71875 23.1562 2.66016 23.0781 2.625V2.63672C22.9844 2.65625 22.8906 2.91797 22.7969 3.42188V3.70312C22.7891 3.73047 22.7715 3.75586 22.7441 3.7793C22.7168 3.80273 22.7031 3.81641 22.7031 3.82031C22.5742 4.39062 22.4688 4.85156 22.3867 5.20312C22.3867 5.24219 22.377 5.31055 22.3574 5.4082C22.3379 5.50586 22.3281 5.5625 22.3281 5.57812H23.7812C23.7812 5.47656 23.7461 5.29297 23.6758 5.02734V4.89844C23.6719 4.88672 23.6602 4.86523 23.6406 4.83398C23.625 4.79883 23.6172 4.77344 23.6172 4.75781ZM31.9785 3.84375C32.0059 3.69531 32.0801 3.41211 32.2012 2.99414C32.3262 2.57227 32.4004 2.23828 32.4238 1.99219V1.58203C32.4238 1.57422 32.4277 1.54102 32.4355 1.48242C32.4473 1.42383 32.4531 1.38867 32.4531 1.37695C32.457 1.36523 32.4629 1.33594 32.4707 1.28906C32.4824 1.23828 32.4922 1.20508 32.5 1.18945C32.5117 1.17383 32.5254 1.14844 32.541 1.11328C32.5605 1.07812 32.5801 1.05469 32.5996 1.04297C32.6191 1.02734 32.6426 1.00977 32.6699 0.990234C32.7012 0.970703 32.7344 0.957031 32.7695 0.949219C32.8086 0.941406 32.8496 0.9375 32.8926 0.9375H35.5645C35.5723 0.941406 35.5957 0.957031 35.6348 0.984375C35.6738 1.01172 35.7051 1.03516 35.7285 1.05469C35.7559 1.07422 35.7715 1.08984 35.7754 1.10156L33.8125 8.16211C33.7695 8.32617 33.7148 8.46484 33.6484 8.57812C33.5859 8.6875 33.5137 8.74219 33.4316 8.74219H29.4238C29.3613 8.49219 29.2891 8.19727 29.207 7.85742C29.125 7.51758 29.043 7.17969 28.9609 6.84375C28.8789 6.50391 28.8066 6.20703 28.7441 5.95312L27.3203 1.11328C27.3203 1.02344 27.3848 0.964844 27.5137 0.9375V0.914062C27.748 0.914062 28.1016 0.910156 28.5742 0.902344C29.0508 0.894531 29.3965 0.890625 29.6113 0.890625H30.5723C30.5996 0.890625 30.6172 0.896484 30.625 0.908203C30.6367 0.916016 30.6484 0.935547 30.6602 0.966797C30.6758 0.994141 30.6953 1.01953 30.7188 1.04297L31.5566 5.90625L32.0723 4.48828L31.9785 3.84375ZM36.0742 8.77734V1.07812C36.0781 1.04688 36.1094 1.01953 36.168 0.996094C36.2266 0.96875 36.2617 0.949219 36.2734 0.9375H39.4258V8.56641C39.4062 8.64844 39.3867 8.70508 39.3672 8.73633C39.3516 8.76367 39.3242 8.77734 39.2852 8.77734H36.0742ZM48.3086 0.9375C48.3555 0.953125 48.3906 1.02148 48.4141 1.14258C48.4414 1.25977 48.457 1.4082 48.4609 1.58789C48.4648 1.76758 48.4648 1.93945 48.4609 2.10352C48.457 2.26758 48.4512 2.43555 48.4434 2.60742C48.4395 2.7793 48.4375 2.88672 48.4375 2.92969C48.4297 3.08594 48.4258 3.30469 48.4258 3.58594V4.20703C48.4258 4.48047 48.4297 4.85547 48.4375 5.33203C48.4453 5.80859 48.4492 6.16016 48.4492 6.38672V8.51953C48.4336 8.65234 48.3242 8.71875 48.1211 8.71875H44.8398C44.7695 8.70312 44.6797 8.53906 44.5703 8.22656C44.4961 8.01953 44.3711 7.67969 44.1953 7.20703C44.0234 6.73438 43.875 6.32031 43.75 5.96484C43.625 5.60547 43.5117 5.25781 43.4102 4.92188V4.88672V4.92188C43.3984 5.17969 43.3867 5.56445 43.375 6.07617C43.3633 6.58398 43.3516 6.96484 43.3398 7.21875V8.41406C43.3398 8.53125 43.3262 8.61328 43.2988 8.66016C43.2715 8.70312 43.1992 8.73828 43.082 8.76562H40.668L40.4102 8.50781C40.4297 7.85938 40.4453 6.84375 40.457 5.46094C40.4688 4.07812 40.4844 3.05469 40.5039 2.39062V1.125C40.543 0.984375 40.5898 0.914062 40.6445 0.914062V0.9375C40.9102 0.9375 41.3262 0.929688 41.8926 0.914062C42.4629 0.898438 42.8906 0.890625 43.1758 0.890625H44.1602C44.1641 0.890625 44.1699 0.892578 44.1777 0.896484C44.248 0.923828 44.2871 0.955078 44.2949 0.990234L44.3008 1.03125C44.4414 1.41016 44.584 1.80273 44.7285 2.20898C44.873 2.61523 45.0449 3.10742 45.2441 3.68555C45.4434 4.25977 45.582 4.65625 45.6602 4.875V4.00781C45.7383 2.63281 45.7773 1.65625 45.7773 1.07812C45.7773 1.01562 45.8203 0.976562 45.9062 0.960938C45.9922 0.945312 46.125 0.9375 46.3047 0.9375H48.3086ZM52.8438 0.867188C53.3789 0.867188 53.8594 0.902344 54.2852 0.972656C54.7148 1.04297 55.125 1.16797 55.5156 1.34766C55.9102 1.52734 56.2383 1.76172 56.5 2.05078C56.7617 2.33984 56.9688 2.71484 57.1211 3.17578C57.2773 3.63672 57.3555 4.17188 57.3555 4.78125C57.3555 5.22656 57.3027 5.64258 57.1973 6.0293C57.0918 6.41211 56.9473 6.74219 56.7637 7.01953C56.5801 7.29688 56.3691 7.54492 56.1309 7.76367C55.8965 7.97852 55.6406 8.1543 55.3633 8.29102C55.0859 8.42773 54.8086 8.5332 54.5312 8.60742C54.2539 8.68164 53.9766 8.72656 53.6992 8.74219H49.6797V0.960938C49.6914 0.960938 49.7129 0.962891 49.7441 0.966797C49.7754 0.970703 49.7969 0.972656 49.8086 0.972656C49.9766 0.972656 50.2305 0.955078 50.5703 0.919922C50.9141 0.884766 51.1719 0.867188 51.3438 0.867188H52.8438ZM52.9141 6.91406C53.1133 6.91406 53.2891 6.88281 53.4414 6.82031C53.5938 6.75391 53.7148 6.66016 53.8047 6.53906C53.8984 6.41797 53.9746 6.29102 54.0332 6.1582C54.0957 6.02539 54.1406 5.86914 54.168 5.68945C54.1953 5.50977 54.2129 5.35352 54.2207 5.2207C54.2324 5.08398 54.2383 4.92969 54.2383 4.75781V4.33594C54.2344 4.30859 54.2227 4.17578 54.2031 3.9375C54.1836 3.69922 54.1406 3.49609 54.0742 3.32812C54.0117 3.20703 53.9414 3.10352 53.8633 3.01758C53.7891 2.92773 53.7148 2.85938 53.6406 2.8125C53.5664 2.76172 53.4785 2.72461 53.377 2.70117C53.2793 2.67383 53.1895 2.65625 53.1074 2.64844C53.0254 2.64062 52.9258 2.63672 52.8086 2.63672V2.76562H52.6328V6.91406H52.9141ZM61.832 8.20312V0.398438C61.832 0.371094 61.8438 0.347656 61.8672 0.328125C61.8945 0.308594 61.9355 0.294922 61.9902 0.287109C62.0449 0.279297 62.0918 0.273438 62.1309 0.269531C62.1738 0.265625 62.2324 0.263672 62.3066 0.263672C62.3848 0.259766 62.4375 0.257812 62.4648 0.257812H67.2227C67.6133 0.257812 67.9824 0.320312 68.3301 0.445312C68.6777 0.566406 68.9863 0.744141 69.2559 0.978516C69.5254 1.21289 69.7383 1.51562 69.8945 1.88672C70.0508 2.25781 70.1289 2.67578 70.1289 3.14062C70.1289 3.48438 70.0879 3.79883 70.0059 4.08398C69.9277 4.36914 69.8223 4.61328 69.6895 4.81641C69.5605 5.01562 69.4004 5.19531 69.209 5.35547C69.0215 5.51562 68.8281 5.64453 68.6289 5.74219C68.4336 5.83984 68.2168 5.92383 67.9785 5.99414C67.7402 6.06055 67.5195 6.10938 67.3164 6.14062C67.1172 6.17188 66.9062 6.19531 66.6836 6.21094H65.5586C65.5273 6.82422 65.5117 7.51172 65.5117 8.27344V8.92969C65.5 9.07031 65.4336 9.14062 65.3125 9.14062H61.9844C61.8828 8.87109 61.832 8.55859 61.832 8.20312ZM65.1367 4.10156L65.3242 4.35938C65.4844 4.35938 65.6367 4.34766 65.7812 4.32422C65.9297 4.30078 66.0742 4.25977 66.2148 4.20117C66.3555 4.14258 66.4766 4.06836 66.5781 3.97852C66.6797 3.88477 66.7617 3.76758 66.8242 3.62695C66.8867 3.48242 66.918 3.32031 66.918 3.14062C66.918 3.00391 66.8984 2.88281 66.8594 2.77734C66.8242 2.66797 66.7793 2.58008 66.7246 2.51367C66.6738 2.44336 66.6016 2.38281 66.5078 2.33203C66.418 2.28125 66.332 2.24414 66.25 2.2207C66.1719 2.19336 66.0703 2.17383 65.9453 2.16211C65.8242 2.14648 65.7227 2.13867 65.6406 2.13867C65.5625 2.13477 65.4609 2.13281 65.3359 2.13281C65.2031 2.19531 65.1367 2.85156 65.1367 4.10156ZM70.7031 0.9375H71.793C72.1289 0.9375 72.666 0.929688 73.4043 0.914062C74.1426 0.898438 74.6953 0.890625 75.0625 0.890625C75.3789 0.890625 75.6738 0.908203 75.9473 0.943359C76.2246 0.978516 76.4961 1.04297 76.7617 1.13672C77.0312 1.23047 77.2598 1.34961 77.4473 1.49414C77.6387 1.63867 77.793 1.83008 77.9102 2.06836C78.0273 2.30273 78.0859 2.57422 78.0859 2.88281C78.0859 3.30859 77.9863 3.67188 77.7871 3.97266C77.5879 4.27344 77.2812 4.52734 76.8672 4.73438C77.0312 4.80469 77.1738 4.89648 77.2949 5.00977C77.416 5.12305 77.5078 5.2207 77.5703 5.30273C77.6367 5.38477 77.6992 5.52344 77.7578 5.71875C77.8203 5.91016 77.8574 6.03711 77.8691 6.09961C77.8809 6.1582 77.9062 6.30664 77.9453 6.54492C77.957 6.59961 77.9648 6.64062 77.9688 6.66797C77.9844 6.82422 78.0508 7.11133 78.168 7.5293C78.2852 7.94336 78.3438 8.26172 78.3438 8.48438C78.3438 8.625 78.3008 8.69531 78.2148 8.69531C77.9805 8.69531 77.625 8.69727 77.1484 8.70117C76.6758 8.70508 76.3242 8.70703 76.0938 8.70703C76 8.69922 75.8594 8.69531 75.6719 8.69531H75.2734C75.1953 8.67188 75.1191 8.55078 75.0449 8.33203C74.9707 8.11328 74.918 7.86719 74.8867 7.59375L74.7578 6.55078C74.7344 6.46484 74.7148 6.4043 74.6992 6.36914C74.6875 6.33008 74.6641 6.28516 74.6289 6.23438C74.5938 6.17969 74.5449 6.14258 74.4824 6.12305C74.4238 6.10352 74.3477 6.09375 74.2539 6.09375H73.9844V8.4375C73.9844 8.44922 73.9844 8.46875 73.9844 8.49609C73.9844 8.51953 73.9844 8.53711 73.9844 8.54883C73.9844 8.55664 73.9844 8.57031 73.9844 8.58984C73.9844 8.60938 73.9824 8.625 73.9785 8.63672C73.9746 8.64453 73.9707 8.65625 73.9668 8.67188C73.9629 8.6875 73.957 8.69922 73.9492 8.70703C73.9453 8.71094 73.9375 8.71875 73.9258 8.73047C73.918 8.73828 73.9062 8.74414 73.8906 8.74805C73.8789 8.75195 73.8633 8.75586 73.8438 8.75977C73.8281 8.76367 73.8086 8.76562 73.7852 8.76562H70.7031V0.9375ZM74.0195 4.03125C74.0273 4.03906 74.0391 4.05664 74.0547 4.08398C74.0703 4.10742 74.0859 4.12695 74.1016 4.14258C74.1172 4.1582 74.1328 4.16797 74.1484 4.17188C74.2656 4.17188 74.3828 4.16016 74.5 4.13672C74.6172 4.10938 74.7363 4.06641 74.8574 4.00781C74.9824 3.94922 75.082 3.85938 75.1562 3.73828C75.2344 3.61719 75.2734 3.47266 75.2734 3.30469C75.2734 2.89844 74.8828 2.69531 74.1016 2.69531C74.0234 2.71484 73.9844 2.74609 73.9844 2.78906V3.01172C73.9844 3.125 73.9902 3.29492 74.002 3.52148C74.0137 3.74805 74.0195 3.91797 74.0195 4.03125ZM81.6133 7.54688C81.5859 7.63672 81.5586 7.75586 81.5312 7.9043C81.5078 8.04883 81.4844 8.16406 81.4609 8.25C81.4414 8.33203 81.4062 8.41992 81.3555 8.51367C81.3047 8.60352 81.2266 8.66992 81.1211 8.71289C81.0195 8.75586 80.8867 8.77734 80.7227 8.77734H78.1914V8.57812C78.3984 7.95703 78.6992 7.00391 79.0938 5.71875C79.4922 4.43359 79.8008 3.46094 80.0195 2.80078V2.8125C80.1523 2.43359 80.3477 1.83984 80.6055 1.03125C80.6094 1.02344 80.6152 1.01367 80.623 1.00195C80.6582 0.943359 80.6914 0.898438 80.7227 0.867188L83.8867 0.890625C84.4258 0.890625 84.7227 0.9375 84.7773 1.03125V1.18359C84.7852 1.21875 84.8281 1.30859 84.9062 1.45312C85.2852 2.61328 85.5625 3.45703 85.7383 3.98438V4.05469C85.7539 4.16797 85.7891 4.29688 85.8438 4.44141C85.8984 4.58594 85.9629 4.74219 86.0371 4.91016C86.1152 5.07422 86.1699 5.20312 86.2012 5.29688L86.4355 6.14062C86.5723 6.59375 86.7734 7.19922 87.0391 7.95703V7.94531V8.0625C87.0508 8.11719 87.0801 8.19141 87.127 8.28516C87.1738 8.37891 87.2031 8.44531 87.2148 8.48438C87.2148 8.59375 87.1914 8.66406 87.1445 8.69531C87.1016 8.72656 87.0156 8.74219 86.8867 8.74219H84.168C84.1016 8.73438 84.0586 8.72852 84.0391 8.72461C84.0195 8.7207 83.9883 8.71289 83.9453 8.70117C83.9062 8.68945 83.877 8.67383 83.8574 8.6543C83.8418 8.63477 83.832 8.60938 83.8281 8.57812L83.6055 7.6875C83.5898 7.61328 83.5742 7.57227 83.5586 7.56445C83.543 7.55273 83.4961 7.54688 83.418 7.54688H81.6133ZM81.8945 5.46094V5.48438V5.46094ZM83.1836 4.75781C83.1602 4.64844 83.125 4.47266 83.0781 4.23047C83.0352 3.98438 82.9922 3.77148 82.9492 3.5918C82.9062 3.4082 82.8594 3.23828 82.8086 3.08203V2.80078C82.7773 2.71875 82.7227 2.66016 82.6445 2.625V2.63672C82.5508 2.65625 82.457 2.91797 82.3633 3.42188V3.70312C82.3555 3.73047 82.3379 3.75586 82.3105 3.7793C82.2832 3.80273 82.2695 3.81641 82.2695 3.82031C82.1406 4.39062 82.0352 4.85156 81.9531 5.20312C81.9531 5.24219 81.9434 5.31055 81.9238 5.4082C81.9043 5.50586 81.8945 5.5625 81.8945 5.57812H83.3477C83.3477 5.47656 83.3125 5.29297 83.2422 5.02734V4.89844C83.2383 4.88672 83.2266 4.86523 83.207 4.83398C83.1914 4.79883 83.1836 4.77344 83.1836 4.75781ZM87.7188 8.78906C87.6484 8.67188 87.6016 8.58984 87.5781 8.54297V0.84375H90.168C90.1797 0.84375 90.2109 0.84375 90.2617 0.84375C90.3125 0.839844 90.3516 0.839844 90.3789 0.84375C90.4062 0.84375 90.4434 0.845703 90.4902 0.849609C90.541 0.853516 90.582 0.861328 90.6133 0.873047C90.6445 0.880859 90.6758 0.894531 90.707 0.914062C90.7422 0.929688 90.7695 0.953125 90.7891 0.984375C90.8125 1.01562 90.8281 1.05078 90.8359 1.08984V3.69141C90.9648 3.43359 91.1445 3.0625 91.375 2.57812C91.6094 2.09375 91.7812 1.74219 91.8906 1.52344L92.1777 0.908203L92.7344 0.890625C92.8125 0.890625 92.9297 0.894531 93.0859 0.902344C93.2461 0.910156 93.3633 0.914062 93.4375 0.914062H93.8828C93.9141 0.914062 93.959 0.912109 94.0176 0.908203C94.0801 0.904297 94.125 0.902344 94.1523 0.902344H94.4922C94.5078 0.902344 94.5352 0.898438 94.5742 0.890625C95.207 0.890625 95.5234 0.9375 95.5234 1.03125C95.5234 1.08594 95.4883 1.16016 95.418 1.25391C95.2383 1.53906 94.9355 2.06055 94.5098 2.81836C94.084 3.57227 93.7402 4.14062 93.4785 4.52344L95.7695 8.47266C95.7695 8.47656 95.7695 8.49023 95.7695 8.51367C95.7695 8.53711 95.7695 8.55273 95.7695 8.56055C95.7695 8.56836 95.7676 8.58203 95.7637 8.60156C95.7637 8.61719 95.7617 8.63086 95.7578 8.64258C95.7539 8.65039 95.748 8.66211 95.7402 8.67773C95.7363 8.68945 95.7285 8.70117 95.7168 8.71289C95.709 8.7207 95.6992 8.73047 95.6875 8.74219C95.3203 8.71875 94.7734 8.70703 94.0469 8.70703C93.9492 8.70703 93.7988 8.70898 93.5957 8.71289C93.3926 8.7168 93.2422 8.71875 93.1445 8.71875H92.3477V8.55469C92.2852 8.44922 92.1504 8.24219 91.9434 7.93359C91.7363 7.625 91.5859 7.38281 91.4922 7.20703L90.8359 5.95312V8.55469C90.7812 8.71094 90.5664 8.78906 90.1914 8.78906H87.7188ZM98.9102 7.54688C98.8828 7.63672 98.8555 7.75586 98.8281 7.9043C98.8047 8.04883 98.7812 8.16406 98.7578 8.25C98.7383 8.33203 98.7031 8.41992 98.6523 8.51367C98.6016 8.60352 98.5234 8.66992 98.418 8.71289C98.3164 8.75586 98.1836 8.77734 98.0195 8.77734H95.4883V8.57812C95.6953 7.95703 95.9961 7.00391 96.3906 5.71875C96.7891 4.43359 97.0977 3.46094 97.3164 2.80078V2.8125C97.4492 2.43359 97.6445 1.83984 97.9023 1.03125C97.9062 1.02344 97.9121 1.01367 97.9199 1.00195C97.9551 0.943359 97.9883 0.898438 98.0195 0.867188L101.184 0.890625C101.723 0.890625 102.02 0.9375 102.074 1.03125V1.18359C102.082 1.21875 102.125 1.30859 102.203 1.45312C102.582 2.61328 102.859 3.45703 103.035 3.98438V4.05469C103.051 4.16797 103.086 4.29688 103.141 4.44141C103.195 4.58594 103.26 4.74219 103.334 4.91016C103.412 5.07422 103.467 5.20312 103.498 5.29688L103.732 6.14062C103.869 6.59375 104.07 7.19922 104.336 7.95703V7.94531V8.0625C104.348 8.11719 104.377 8.19141 104.424 8.28516C104.471 8.37891 104.5 8.44531 104.512 8.48438C104.512 8.59375 104.488 8.66406 104.441 8.69531C104.398 8.72656 104.312 8.74219 104.184 8.74219H101.465C101.398 8.73438 101.355 8.72852 101.336 8.72461C101.316 8.7207 101.285 8.71289 101.242 8.70117C101.203 8.68945 101.174 8.67383 101.154 8.6543C101.139 8.63477 101.129 8.60938 101.125 8.57812L100.902 7.6875C100.887 7.61328 100.871 7.57227 100.855 7.56445C100.84 7.55273 100.793 7.54688 100.715 7.54688H98.9102ZM99.1914 5.46094V5.48438V5.46094ZM100.48 4.75781C100.457 4.64844 100.422 4.47266 100.375 4.23047C100.332 3.98438 100.289 3.77148 100.246 3.5918C100.203 3.4082 100.156 3.23828 100.105 3.08203V2.80078C100.074 2.71875 100.02 2.66016 99.9414 2.625V2.63672C99.8477 2.65625 99.7539 2.91797 99.6602 3.42188V3.70312C99.6523 3.73047 99.6348 3.75586 99.6074 3.7793C99.5801 3.80273 99.5664 3.81641 99.5664 3.82031C99.4375 4.39062 99.332 4.85156 99.25 5.20312C99.25 5.24219 99.2402 5.31055 99.2207 5.4082C99.2012 5.50586 99.1914 5.5625 99.1914 5.57812H100.645C100.645 5.47656 100.609 5.29297 100.539 5.02734V4.89844C100.535 4.88672 100.523 4.86523 100.504 4.83398C100.488 4.79883 100.48 4.77344 100.48 4.75781ZM109.422 3.21094C109.316 3.21094 109.23 3.19531 109.164 3.16406C109.098 3.13281 109.045 3.09375 109.006 3.04688C108.967 3 108.922 2.95312 108.871 2.90625C108.824 2.85938 108.748 2.82031 108.643 2.78906C108.537 2.75781 108.402 2.74219 108.238 2.74219C108.188 2.74219 108.125 2.74805 108.051 2.75977C107.98 2.76758 107.902 2.79297 107.816 2.83594C107.73 2.87891 107.688 2.93359 107.688 3C107.688 3.07422 107.723 3.13867 107.793 3.19336C107.867 3.24414 107.949 3.28125 108.039 3.30469C108.133 3.32422 108.236 3.34961 108.35 3.38086C108.467 3.4082 108.549 3.43359 108.596 3.45703L109.457 3.66797C109.711 3.73828 109.939 3.8125 110.143 3.89062C110.346 3.96875 110.561 4.07617 110.787 4.21289C111.018 4.3457 111.209 4.49414 111.361 4.6582C111.514 4.82227 111.641 5.0293 111.742 5.2793C111.844 5.52539 111.895 5.79688 111.895 6.09375C111.895 6.45312 111.848 6.77344 111.754 7.05469V7.04297C111.672 7.29297 111.557 7.51758 111.408 7.7168C111.26 7.91211 111.084 8.07617 110.881 8.20898C110.678 8.33789 110.473 8.44727 110.266 8.53711C110.059 8.62305 109.818 8.69336 109.545 8.74805C109.275 8.79883 109.033 8.83789 108.818 8.86523C108.607 8.88867 108.363 8.91016 108.086 8.92969C106.855 8.86719 106.031 8.67188 105.613 8.34375V8.27344C105.258 8.00781 104.994 7.71875 104.822 7.40625C104.654 7.09375 104.555 6.74219 104.523 6.35156C104.523 6.25781 104.566 6.21094 104.652 6.21094C104.676 6.21094 104.711 6.21289 104.758 6.2168C104.805 6.2207 104.84 6.22266 104.863 6.22266H105.461C105.516 6.21484 105.594 6.21094 105.695 6.21094H105.848C105.879 6.21094 105.906 6.21484 105.93 6.22266C106.156 6.21484 106.543 6.21094 107.09 6.21094H107.359C107.438 6.21094 107.498 6.23438 107.541 6.28125C107.584 6.32812 107.617 6.38672 107.641 6.45703C107.668 6.52344 107.697 6.5918 107.729 6.66211C107.764 6.72852 107.824 6.78516 107.91 6.83203C107.996 6.87891 108.109 6.90234 108.25 6.90234C108.402 6.90234 108.539 6.86328 108.66 6.78516C108.785 6.70312 108.848 6.58594 108.848 6.43359C108.848 6.36328 108.814 6.29688 108.748 6.23438C108.682 6.17188 108.582 6.11523 108.449 6.06445C108.316 6.01367 108.197 5.97266 108.092 5.94141C107.99 5.91016 107.852 5.87305 107.676 5.83008C107.5 5.78711 107.387 5.75781 107.336 5.74219H106.984C106.137 5.49219 105.525 5.17578 105.15 4.79297C104.779 4.40625 104.594 3.91797 104.594 3.32812C104.594 2.9375 104.666 2.58594 104.811 2.27344C104.959 1.96094 105.152 1.70508 105.391 1.50586C105.633 1.30664 105.916 1.14062 106.24 1.00781C106.564 0.871094 106.895 0.775391 107.23 0.720703C107.566 0.662109 107.914 0.632812 108.273 0.632812C108.91 0.632812 109.5 0.740234 110.043 0.955078C110.59 1.16602 111.004 1.44141 111.285 1.78125C111.387 1.88281 111.469 2.01172 111.531 2.16797C111.594 2.32422 111.633 2.44922 111.648 2.54297C111.668 2.63281 111.691 2.78516 111.719 3L111.555 3.23438H110.559C110.449 3.23438 110.268 3.23047 110.014 3.22266C109.76 3.21484 109.562 3.21094 109.422 3.21094ZM120.145 1.18359V8.39062C120.145 8.47266 120.141 8.53906 120.133 8.58984C120.129 8.63672 120.113 8.68164 120.086 8.72461C120.059 8.76758 120.02 8.78906 119.969 8.78906H116.98V8.66016C116.973 8.65234 116.941 8.63477 116.887 8.60742C116.836 8.58008 116.805 8.55469 116.793 8.53125V6.16406C116.793 6.07812 116.785 6.0293 116.77 6.01758C116.758 6.00586 116.703 6 116.605 6H116.207C116.113 6 116.004 6.00781 115.879 6.02344V8.55469C115.863 8.625 115.832 8.66992 115.785 8.68945C115.742 8.70898 115.676 8.71875 115.586 8.71875H115.316C115.133 8.71875 114.844 8.72266 114.449 8.73047C114.059 8.73828 113.762 8.74219 113.559 8.74219H112.785C112.617 8.74219 112.533 8.64844 112.533 8.46094L112.568 1.07812C112.568 1.05859 112.574 1.04297 112.586 1.03125C112.598 1.01562 112.621 0.996094 112.656 0.972656C112.691 0.945312 112.711 0.929688 112.715 0.925781H115.867V3.44531H116.887V0.867188H119.875C119.969 0.867188 120.037 0.888672 120.08 0.931641C120.123 0.974609 120.145 1.05859 120.145 1.18359Z" fill="white"/>
</svg>
