<svg width="18" height="10" viewBox="0 0 18 10" fill="none" xmlns="http://www.w3.org/2000/svg">
<path d="M2.26172 9H0.28125L3.29883 0.269531H5.67188L8.68359 9H6.70898L6.05859 7.00781H2.90625L2.26172 9ZM3.375 5.56641H5.58984L4.51758 2.26172H4.44727L3.375 5.56641ZM13.6875 9.11719C12.8711 9.11719 12.1523 8.9375 11.5312 8.57812C10.9141 8.21484 10.4316 7.69922 10.084 7.03125C9.74023 6.35938 9.56836 5.56445 9.56836 4.64648C9.56836 3.70117 9.74805 2.89453 10.1074 2.22656C10.4668 1.55469 10.9551 1.04102 11.5723 0.685547C12.1895 0.330078 12.8828 0.152344 13.6523 0.152344C14.3125 0.152344 14.9082 0.277344 15.4395 0.527344C15.9746 0.777344 16.4121 1.12305 16.752 1.56445C17.0957 2.00586 17.3066 2.51562 17.3848 3.09375H15.5156C15.3945 2.68359 15.1777 2.36328 14.8652 2.13281C14.5527 1.89844 14.1582 1.78125 13.6816 1.78125C13.0137 1.78125 12.4727 2.0293 12.0586 2.52539C11.6445 3.01758 11.4375 3.71875 11.4375 4.62891C11.4375 5.53906 11.6406 6.24414 12.0469 6.74414C12.457 7.24023 13.0098 7.48828 13.7051 7.48828C14.3145 7.48828 14.793 7.33008 15.1406 7.01367C15.4922 6.69336 15.6738 6.26172 15.6855 5.71875H13.8164V4.33008H17.4727V5.43164C17.4727 6.19727 17.3105 6.85547 16.9863 7.40625C16.6621 7.95703 16.2148 8.38086 15.6445 8.67773C15.0742 8.9707 14.4219 9.11719 13.6875 9.11719Z" fill="white"/>
</svg>
